<?xml version="1.0" encoding="UTF-8"?><svg id="Camada_1" xmlns="http://www.w3.org/2000/svg" xmlns:xlink="http://www.w3.org/1999/xlink" viewBox="0 0 86 86.97"><defs><style>.cls-1{fill:url(#Gradiente_sem_nome_189-5);}.cls-2{fill:url(#Gradiente_sem_nome_189-3);}.cls-3{fill:url(#Gradiente_sem_nome_189);}.cls-4{fill:url(#Gradiente_sem_nome_189-4);}.cls-5{fill:url(#Gradiente_sem_nome_189-2);}</style><radialGradient id="Gradiente_sem_nome_189" cx="68.04" cy="24.88" fx="68.04" fy="24.88" r="56.61" gradientUnits="userSpaceOnUse"><stop offset="0" stop-color="#ffcc75"/><stop offset="1" stop-color="#f29800"/></radialGradient><radialGradient id="Gradiente_sem_nome_189-2" cx="68.04" cy="25.01" fx="68.04" fy="25.01" r="56.88" xlink:href="#Gradiente_sem_nome_189"/><radialGradient id="Gradiente_sem_nome_189-3" cx="47.19" cy="43.3" fx="47.19" fy="43.3" r="52.07" xlink:href="#Gradiente_sem_nome_189"/><radialGradient id="Gradiente_sem_nome_189-4" cx="68.04" cy="25.01" fx="68.04" fy="25.01" r="56.88" xlink:href="#Gradiente_sem_nome_189"/><radialGradient id="Gradiente_sem_nome_189-5" cx="68.04" cy="25.01" fx="68.04" fy="25.01" r="56.88" gradientTransform="translate(22.7 105.13) rotate(-90)" xlink:href="#Gradiente_sem_nome_189"/></defs><path class="cls-3" d="M51.65,74.71v-5.39c0-.84.54-1.59,1.34-1.83s1.59-.44,2.36-.72c10.04-3.63,17.74-12.98,19.29-23.57,3.13-21.25-16.62-38.72-37.37-33.09-10.09,2.74-18.05,10.78-20.81,20.79-.2.72.33,1.43,1.07,1.43h1.99c1.32,0,2.14,1.44,1.47,2.57l-7.92,13.4c-.66,1.12-2.28,1.12-2.94,0l-7.92-13.4c-.67-1.14.15-2.57,1.47-2.57h2.33c.54,0,1-.39,1.1-.93C10.13,15.27,23.83,2.4,40.16.32c25.38-3.24,46.91,18.45,43.51,43.81-2.11,15.69-14.32,29.01-29.68,32.45-1.2.27-2.33-.65-2.33-1.88Z"/><path class="cls-5" d="M62.75,21.23c.72-.09.73.29.61.93-.25,1.32-2.95,4.95-3.87,6.2-3.59,4.88-8.19,10.57-12.34,14.96-2.5,2.65-4.89,3.9-7.78.76-1.93-2.09-7.67-10.04-7.99-12.6-.34-2.64,3.46-.43,4.57.16,2.29,1.23,4.46,2.89,6.56,4.43l.34.06c4.51-3.67,8.84-7.61,13.55-11.03,1.19-.86,5.13-3.72,6.35-3.88Z"/><path class="cls-2" d="M24.69,48.51c-15.4,1.26-22.93,20.11-12.75,31.8,10.34,11.87,29.91,7.1,33.4-8.21,2.97-13-7.47-24.66-20.65-23.58ZM30.72,75.63c-.85.38-1.84.5-2.65.84v2.72h-3.35c.34-.85.05-1.78,0-2.65-1.92-.03-3.8-.46-5.58-1.13l.91-3.21c.11-.19.18-.08.31-.04.46.12.94.39,1.43.53,1.61.45,6.19,1.34,6.99-.69.51-1.3-.95-2.01-1.93-2.42-2.28-.96-6.03-1.43-7.18-3.99-1.14-2.52.41-4.95,2.72-5.99.84-.38,1.82-.47,2.61-.88v-2.58h3.21v2.51c.75-.02,4.53.47,4.83.97l-.85,2.94c-.23.34-1.35-.26-1.75-.35-1.32-.3-7.04-1.06-5.9,1.71.44,1.06,4.78,2.11,5.99,2.66,4.57,2.09,4.77,7,.18,9.03Z"/><rect class="cls-4" x="41.02" y="12.09" width="4.74" height="11.73" rx="1.72" ry="1.72"/><rect class="cls-1" x="61.55" y="35.35" width="4.74" height="11.73" rx="1.72" ry="1.72" transform="translate(105.13 -22.7) rotate(90)"/></svg>