<?xml version="1.0" encoding="UTF-8"?><svg id="Camada_1" xmlns="http://www.w3.org/2000/svg" xmlns:xlink="http://www.w3.org/1999/xlink" viewBox="0 0 100 91"><defs><style>.cls-1{fill:url(#Gradiente_sem_nome_189);}.cls-2{fill:url(#Gradiente_sem_nome_189-2);}</style><radialGradient id="Gradiente_sem_nome_189" cx="78.95" cy="15.68" fx="78.95" fy="15.68" r="62.27" gradientUnits="userSpaceOnUse"><stop offset="0" stop-color="#ffcc75"/><stop offset="1" stop-color="#f29800"/></radialGradient><radialGradient id="Gradiente_sem_nome_189-2" cx="78.95" cy="15.68" fx="78.95" fy="15.68" r="62.27" xlink:href="#Gradiente_sem_nome_189"/></defs><path class="cls-1" d="M98.43,44.23h0c0,.84-.29,1.64-.86,2.25-.25.27-.52.52-.81.74-1.2.9-2.89.77-4.03-.2L52.15,12.77c-1.24-1.05-3.05-1.05-4.29,0L7.27,47.01c-1.15.97-2.83,1.1-4.03.2-.29-.21-.56-.46-.81-.74-.56-.6-.86-1.41-.86-2.23h0c0-.64.18-1.26.53-1.8l.44-.68c.2-.3.44-.57.72-.8C17.57,29.68,30.61,16.72,44.84,5.39c4.57-3.64,5.46-4.53,10.31,0,12.84,12.6,29.37,23.38,42.01,35.91.42.42.62.9.88,1.37s.39,1.02.39,1.56Z"/><path class="cls-2" d="M78.81,88.68H21.19c-2.99,0-5.42-2.43-5.42-5.42v-36.22c0-1.58.69-3.08,1.88-4.1l28.81-24.81c2.03-1.75,5.04-1.75,7.07,0l28.81,24.81c1.19,1.03,1.88,2.53,1.88,4.1v36.22c0,2.99-2.43,5.42-5.42,5.42ZM46.22,49.51h-11.82c-1.02,0-1.84.82-1.84,1.84v11.82c0,1.02.82,1.84,1.84,1.84h11.82c1.02,0,1.84-.82,1.84-1.84v-11.82c0-1.02-.82-1.84-1.84-1.84ZM65.59,49.51h-11.82c-1.02,0-1.84.82-1.84,1.84v11.82c0,1.02.82,1.84,1.84,1.84h11.82c1.02,0,1.84-.82,1.84-1.84v-11.82c0-1.02-.82-1.84-1.84-1.84ZM46.22,68.45h-11.82c-1.02,0-1.84.82-1.84,1.84v11.82c0,1.02.82,1.84,1.84,1.84h11.82c1.02,0,1.84-.82,1.84-1.84v-11.82c0-1.02-.82-1.84-1.84-1.84ZM65.59,68.45h-11.82c-1.02,0-1.84.82-1.84,1.84v11.82c0,1.02.82,1.84,1.84,1.84h11.82c1.02,0,1.84-.82,1.84-1.84v-11.82c0-1.02-.82-1.84-1.84-1.84Z"/></svg>