<?xml version="1.0" encoding="UTF-8"?><svg id="Camada_1" xmlns="http://www.w3.org/2000/svg" xmlns:xlink="http://www.w3.org/1999/xlink" viewBox="0 0 95 100"><defs><style>.cls-1{fill:url(#Gradiente_sem_nome_189);}.cls-2{fill:url(#Gradiente_sem_nome_189-2);}</style><radialGradient id="Gradiente_sem_nome_189" cx="77.7" cy="22.3" fx="77.7" fy="22.3" r="59.37" gradientUnits="userSpaceOnUse"><stop offset="0" stop-color="#ffcc75"/><stop offset="1" stop-color="#f29800"/></radialGradient><radialGradient id="Gradiente_sem_nome_189-2" cx="77.7" fx="77.7" r="59.37" xlink:href="#Gradiente_sem_nome_189"/></defs><path class="cls-1" d="M92.06,50.31c-1.42-.85-1.84.84-3.01,1.25,1.19-4.09-2.41-8.47-6.68-6.37-1.23.61-2.14,1.99-2.22,3.37-.13,2.36,1.24,4.05,2.9,5.48-2.5,1.43-2.05-.29-2.92-2.14-9.16-19.38-37.51-23.82-55.06-13.78-3.26-2.34-6.25-4.2-10.49-3.67-1.6.2-5.16,1.39-5.14,3.36.01.92,1.99,3.66,2.54,4.72.47.89,2.35,4.44,2.21,5.15-.1.49-2,3.55-2.42,4.42-.34.7-.68,2.18-1.06,2.66-.43.56-3.27,1.97-4.07,2.34-1.45.67-4.01.88-4.21,2.61-.39,3.32.29,9.56,1.62,12.65,2.27,5.28,6.98,6.65,12.4,6.31,1.34,1.9,3.33,3.25,5.09,4.72,1.38,3.52,1.38,8.32,2.74,11.73.37.94.82,1.2,1.81,1.29,3.41.31,7.41-.18,10.87-.1,1.56-.48,1.65-4.48,2.06-5.9,3.54.61,7.16.38,10.75.42.44,1.78.12,5.81,2.26,6.32,1.35.32,8.89.28,10.44.07.62-.08,1.41-.39,1.75-.94l4.77-11.93c9.13-5.7,15.05-16.05,12.93-27.02,1.45-.3,3.13-1.93,4.31-2.32.46-.15,1.21-.06,1.84-.21,1.34-.32,6.37-3.07,4-4.5ZM23.65,59.35c-2.16,2.11-6.1-.54-4.45-3.52,2.06-3.74,7.54.51,4.45,3.52ZM58.65,45.14c-.96.9-2.12-.43-3.03-.82-4.14-1.73-7.93-2.28-12.3-1.52-1.13.2-5.06,1.79-5.59,1.67-.87-.19-1.23-1.28-.87-2.25.53-1.43,6.16-2.59,7.5-2.73,3.36-.34,6.76-.09,10.01,1.01.86.29,4.45,1.75,4.67,2.65.15.59.03,1.58-.39,1.97ZM86.4,51.3c-1.37,2.61-4.96-1.93-3.29-3.6,1.76-1.77,4.65,1.01,3.29,3.6Z"/><path class="cls-2" d="M41.23,4.47c-6.93,4.14-8.39,14.08-2.76,19.94,7.67,7.98,21.54,3.19,22.26-7.88.68-10.44-10.46-17.47-19.5-12.06ZM49.03,21.99l-.09,1.25h-2.48l-.02-1.63c-1.43-.21-2.35-1.2-3.28-2.19l1.96-1.52c1.09,1.23,4.31,2.53,4.84.74.78-2.63-6.68-.67-6.68-5.41,0-1.51,1.17-3.19,3.16-3.66l.02-1.84h2.48s-.02,1.76-.02,1.76c0,0,1.63.23,2.6,1.35.4.46.69.96.72,1.64l-1.97.63c-1.4-1.93-4.44-1.61-4.44.12s6.79.82,6.79,5.06c0,1.89-1.63,3.21-3.59,3.69Z"/></svg>