<?xml version="1.0" encoding="UTF-8"?><svg id="Camada_1" xmlns="http://www.w3.org/2000/svg" xmlns:xlink="http://www.w3.org/1999/xlink" viewBox="0 0 96 95"><defs><style>.cls-1{fill:url(#Gradiente_sem_nome_189);}</style><radialGradient id="Gradiente_sem_nome_189" cx="101.44" cy="20.7" fx="101.44" fy="20.7" r="64.18" gradientUnits="userSpaceOnUse"><stop offset="0" stop-color="#ffcc75"/><stop offset="1" stop-color="#f29800"/></radialGradient></defs><path class="cls-1" d="M86.85,43.91c4.55.4,7.54,4.27,7.23,8.73-.74,10.66-8.19,22.82-16.25,29.55C51.89,103.86,11.99,91.43,3.08,58.98c-1.87-6.83-2.61-13.77,6.27-15.07h18.96c.78-1.15,1.39-2.36,2.23-3.45,5.21-6.84,19.43-14.12,27.98-14.59,1.42-.08,2.96,0,4.33.34L86.27,2.62c.68-.63,1.55-.84,2.4-.43.58.27,3.67,3.38,4.19,4.02.84,1.03.91,1.89.06,2.95l-23.58,23.44c.6,3.83.02,7.66-1.18,11.31h18.68ZM33.24,43.91h3.3c3.21-3.35,6.91-6.17,10.66-8.89l5.65-3.72c-4.17,1.25-8.3,3.27-11.96,5.62-2.87,1.84-5.81,4.08-7.64,6.99ZM42.61,43.91h5.96c3.13-3.11,6.25-6.27,9.37-9.37.52-.51,1.13-.96,1.61-1.51.1-.12.34-.42.35-.57-6.32,2.81-12.08,6.95-17.29,11.45ZM58.46,43.91c0-.14.06-.27.13-.38,1.67-2.63,3.4-5.25,4.49-8.18l-8.56,8.56h3.93ZM63.31,43.91c.55.41.89-1.17.92-1.5l-.92,1.5ZM26.65,49.12H9.24c-.23,0-1,.35-1.22.52-1.52,1.13-1.02,2.87-.75,4.46.09.54.87,4.19,1.1,4.34,6.15.11,12.32,1.34,17.86,4,4.82,2.31,8.66,5.96,13.3,8.56,9.48,5.33,18.63,6.63,28.67,1.8,5.74-2.76,11.2-6.21,17.09-8.71,1.42-2.77,2.46-5.88,3.09-8.94.51-2.46,1.41-5.66-2.1-6.04l-20,.02c-.62.9-1,2-1.52,2.99-2.42,4.62-5.84,9.95-10.09,13.05-6.56,4.78-15.74,5.59-22.3.37-4.9-3.9-6.88-10.33-5.73-16.42ZM32.43,49.12l-1.52.07c-.29,1.15-.43,2.33-.45,3.52l1.97-3.58ZM43.3,49.12h-5.73c-2.24,2.84-4.3,6.35-4.34,10.06l10.06-10.06ZM54.52,49.12h-5.26l-13.01,13.01c2.59.19,5.33-1.13,7.51-2.44,3.54-2.13,6.4-5.06,9.03-8.21l1.74-2.37ZM61.58,49.12h-1.85c-3.94,5.61-8.56,11.15-14.61,14.59-.19.11-2.38,1.17-2.28,1.25,9.48.02,14.99-8.26,18.74-15.85Z"/></svg>